<svg width="19" height="18" viewBox="0 0 19 18" fill="none" xmlns="http://www.w3.org/2000/svg">
<g id="uil:calender">
<path id="Vector" d="M14.75 3H13.25V2.25C13.25 2.05109 13.171 1.86032 13.0303 1.71967C12.8897 1.57902 12.6989 1.5 12.5 1.5C12.3011 1.5 12.1103 1.57902 11.9697 1.71967C11.829 1.86032 11.75 2.05109 11.75 2.25V3H7.25V2.25C7.25 2.05109 7.17098 1.86032 7.03033 1.71967C6.88968 1.57902 6.69891 1.5 6.5 1.5C6.30109 1.5 6.11032 1.57902 5.96967 1.71967C5.82902 1.86032 5.75 2.05109 5.75 2.25V3H4.25C3.65326 3 3.08097 3.23705 2.65901 3.65901C2.23705 4.08097 2 4.65326 2 5.25V14.25C2 14.8467 2.23705 15.419 2.65901 15.841C3.08097 16.2629 3.65326 16.5 4.25 16.5H14.75C15.3467 16.5 15.919 16.2629 16.341 15.841C16.7629 15.419 17 14.8467 17 14.25V5.25C17 4.65326 16.7629 4.08097 16.341 3.65901C15.919 3.23705 15.3467 3 14.75 3ZM15.5 14.25C15.5 14.4489 15.421 14.6397 15.2803 14.7803C15.1397 14.921 14.9489 15 14.75 15H4.25C4.05109 15 3.86032 14.921 3.71967 14.7803C3.57902 14.6397 3.5 14.4489 3.5 14.25V9H15.5V14.25ZM15.5 7.5H3.5V5.25C3.5 5.05109 3.57902 4.86032 3.71967 4.71967C3.86032 4.57902 4.05109 4.5 4.25 4.5H5.75V5.25C5.75 5.44891 5.82902 5.63968 5.96967 5.78033C6.11032 5.92098 6.30109 6 6.5 6C6.69891 6 6.88968 5.92098 7.03033 5.78033C7.17098 5.63968 7.25 5.44891 7.25 5.25V4.5H11.75V5.25C11.75 5.44891 11.829 5.63968 11.9697 5.78033C12.1103 5.92098 12.3011 6 12.5 6C12.6989 6 12.8897 5.92098 13.0303 5.78033C13.171 5.63968 13.25 5.44891 13.25 5.25V4.5H14.75C14.9489 4.5 15.1397 4.57902 15.2803 4.71967C15.421 4.86032 15.5 5.05109 15.5 5.25V7.5Z" fill="#2A295C"/>
</g>
</svg>
