<svg width="40" height="41" viewBox="0 0 40 41" fill="none" xmlns="http://www.w3.org/2000/svg">
<g id="material-symbols-light:image-outline">
<path id="Vector" d="M9.35573 33.9884C8.58906 33.9884 7.94906 33.7318 7.43573 33.2184C6.92128 32.704 6.66406 32.0634 6.66406 31.2968V10.0134C6.66406 9.24678 6.92128 8.60678 7.43573 8.09344C7.94906 7.579 8.58906 7.32178 9.35573 7.32178H30.6391C31.4057 7.32178 32.0457 7.579 32.5591 8.09344C33.0735 8.60678 33.3307 9.24678 33.3307 10.0134V31.2968C33.3307 32.0634 33.0741 32.7034 32.5607 33.2168C32.0463 33.7312 31.4057 33.9884 30.6391 33.9884H9.35573ZM9.35573 32.3218H30.6391C30.8946 32.3218 31.1296 32.2151 31.3441 32.0018C31.5574 31.7873 31.6641 31.5523 31.6641 31.2968V10.0134C31.6641 9.75789 31.5574 9.52289 31.3441 9.30844C31.1296 9.09511 30.8946 8.98844 30.6391 8.98844H9.35573C9.10017 8.98844 8.86517 9.09511 8.65073 9.30844C8.4374 9.52289 8.33073 9.75789 8.33073 10.0134V31.2968C8.33073 31.5523 8.4374 31.7873 8.65073 32.0018C8.86517 32.2151 9.10017 32.3218 9.35573 32.3218ZM12.4974 28.1551H27.7541L23.0424 21.8718L18.6841 27.3851L15.7674 23.8601L12.4974 28.1551Z" fill="#2A295C"/>
</g>
</svg>
