<svg width="24" height="24" viewBox="0 0 24 24" fill="none" xmlns="http://www.w3.org/2000/svg">
<g id="material-symbols:call-outline">
<path id="Vector" d="M19.95 21C17.8667 21 15.8083 20.546 13.775 19.638C11.7417 18.73 9.89167 17.4423 8.225 15.775C6.55833 14.1083 5.271 12.2583 4.363 10.225C3.455 8.19167 3.00067 6.13333 3 4.05C3 3.75 3.1 3.5 3.3 3.3C3.5 3.1 3.75 3 4.05 3H8.1C8.33333 3 8.54167 3.07933 8.725 3.238C8.90833 3.39667 9.01667 3.584 9.05 3.8L9.7 7.3C9.73333 7.56667 9.725 7.79167 9.675 7.975C9.625 8.15833 9.53333 8.31667 9.4 8.45L6.975 10.9C7.30833 11.5167 7.704 12.1123 8.162 12.687C8.62 13.2617 9.12433 13.816 9.675 14.35C10.1917 14.8667 10.7333 15.346 11.3 15.788C11.8667 16.23 12.4667 16.634 13.1 17L15.45 14.65C15.6 14.5 15.796 14.3877 16.038 14.313C16.28 14.2383 16.5173 14.2173 16.75 14.25L20.2 14.95C20.4333 15.0167 20.625 15.1377 20.775 15.313C20.925 15.4883 21 15.684 21 15.9V19.95C21 20.25 20.9 20.5 20.7 20.7C20.5 20.9 20.25 21 19.95 21ZM6.025 9L7.675 7.35L7.25 5H5.025C5.10833 5.68333 5.225 6.35833 5.375 7.025C5.525 7.69167 5.74167 8.35 6.025 9ZM14.975 17.95C15.625 18.2333 16.2877 18.4583 16.963 18.625C17.6383 18.7917 18.3173 18.9 19 18.95V16.75L16.65 16.275L14.975 17.95Z" fill="#2A295C"/>
<path id="Vector_2" d="M17.377 6.5C17.86 6.5 18.252 6.892 18.252 7.375V9.7495C18.252 10.3464 18.0149 10.9188 17.5928 11.3408C17.1708 11.7629 16.5984 12 16.0015 12C15.4046 12 14.8322 11.7629 14.4102 11.3408C13.9881 10.9188 13.751 10.3464 13.751 9.7495V7.375C13.751 6.892 14.1425 6.5 14.626 6.5H17.377ZM13.5655 6.5C13.3854 6.71673 13.2771 6.98404 13.2555 7.265L13.2505 7.375V9.7495C13.2505 10.173 13.3465 10.574 13.5175 10.932C13.2211 11.0113 12.9105 11.0213 12.6096 10.9614C12.3088 10.9015 12.0257 10.7731 11.7824 10.5863C11.539 10.3995 11.3419 10.1593 11.2062 9.88411C11.0706 9.60895 11 9.30628 11 8.9995V7.375C11 7.15541 11.0826 6.94384 11.2313 6.7823C11.3801 6.62077 11.5841 6.52107 11.803 6.503L11.875 6.5H13.5655ZM18.4375 6.5H20.125C20.608 6.5 21 6.892 21 7.375V9C21.0001 9.30658 20.9297 9.60908 20.7942 9.88411C20.6587 10.1591 20.4619 10.3994 20.2188 10.5862C19.9757 10.773 19.6929 10.9015 19.3923 10.9616C19.0917 11.0217 18.7812 11.0119 18.485 10.933C18.635 10.619 18.727 10.273 18.7475 9.907L18.752 9.7495V7.375C18.752 7.0425 18.6345 6.7375 18.4375 6.5ZM16 3C16.3978 3 16.7794 3.15804 17.0607 3.43934C17.342 3.72064 17.5 4.10218 17.5 4.5C17.5 4.89782 17.342 5.27936 17.0607 5.56066C16.7794 5.84196 16.3978 6 16 6C15.6022 6 15.2206 5.84196 14.9393 5.56066C14.658 5.27936 14.5 4.89782 14.5 4.5C14.5 4.10218 14.658 3.72064 14.9393 3.43934C15.2206 3.15804 15.6022 3 16 3ZM19.25 3.5C19.5815 3.5 19.8995 3.6317 20.1339 3.86612C20.3683 4.10054 20.5 4.41848 20.5 4.75C20.5 5.08152 20.3683 5.39946 20.1339 5.63388C19.8995 5.8683 19.5815 6 19.25 6C18.9185 6 18.6005 5.8683 18.3661 5.63388C18.1317 5.39946 18 5.08152 18 4.75C18 4.41848 18.1317 4.10054 18.3661 3.86612C18.6005 3.6317 18.9185 3.5 19.25 3.5ZM12.75 3.5C13.0815 3.5 13.3995 3.6317 13.6339 3.86612C13.8683 4.10054 14 4.41848 14 4.75C14 5.08152 13.8683 5.39946 13.6339 5.63388C13.3995 5.8683 13.0815 6 12.75 6C12.4185 6 12.1005 5.8683 11.8661 5.63388C11.6317 5.39946 11.5 5.08152 11.5 4.75C11.5 4.41848 11.6317 4.10054 11.8661 3.86612C12.1005 3.6317 12.4185 3.5 12.75 3.5Z" fill="#2A295C"/>
</g>
</svg>
