<svg width="25" height="24" viewBox="0 0 25 24" fill="none" xmlns="http://www.w3.org/2000/svg">
<g id="material-symbols:deployed-code-account-rounded">
<path id="Vector" d="M17.5 21.025C17.3667 21.025 17.2333 21.0083 17.1 20.975C16.9667 20.9417 16.8417 20.8833 16.725 20.8L13.725 19.05C13.4917 18.9167 13.3127 18.7377 13.188 18.513C13.0633 18.2883 13.0007 18.0423 13 17.775V14.25C13 13.9833 13.0627 13.7377 13.188 13.513C13.3133 13.2883 13.4923 13.109 13.725 12.975L16.725 11.225C16.8417 11.1417 16.9667 11.0833 17.1 11.05C17.2333 11.0167 17.3667 11 17.5 11C17.6333 11 17.7627 11.021 17.888 11.063C18.0133 11.105 18.134 11.159 18.25 11.225L21.25 12.975C21.4833 13.1083 21.6667 13.2877 21.8 13.513C21.9333 13.7383 22 13.984 22 14.25V17.775C22 18.0417 21.9333 18.2877 21.8 18.513C21.6667 18.7383 21.4833 18.9173 21.25 19.05L18.25 20.8C18.1333 20.8667 18.0123 20.921 17.887 20.963C17.7617 21.005 17.6327 21.0257 17.5 21.025ZM4.5 20C3.95 20 3.47933 19.8043 3.088 19.413C2.69667 19.0217 2.50067 18.5507 2.5 18V17.2C2.5 16.65 2.64167 16.1333 2.925 15.65C3.20833 15.1667 3.6 14.8 4.1 14.55C4.95 14.1167 5.90833 13.75 6.975 13.45C8.04167 13.15 9.21667 13 10.5 13H10.85C10.95 13 11.05 13.0167 11.15 13.05C10.6667 14.25 10.4667 15.4417 10.55 16.625C10.6333 17.8083 11.0333 18.9333 11.75 20H4.5ZM10.5 12C9.4 12 8.45833 11.6083 7.675 10.825C6.89167 10.0417 6.5 9.1 6.5 8C6.5 6.9 6.89167 5.95833 7.675 5.175C8.45833 4.39167 9.4 4 10.5 4C11.6 4 12.5417 4.39167 13.325 5.175C14.1083 5.95833 14.5 6.9 14.5 8C14.5 9.1 14.1083 10.0417 13.325 10.825C12.5417 11.6083 11.6 12 10.5 12ZM15.15 13.85L17.5 15.225L19.85 13.85L17.5 12.5L15.15 13.85ZM18.25 19.05L20.5 17.75V15L18.25 16.325V19.05ZM14.5 17.75L16.75 19.075V16.35L14.5 15.025V17.75Z" fill="#222222"/>
</g>
</svg>
