<svg width="154" height="41" viewBox="0 0 154 41" fill="none" xmlns="http://www.w3.org/2000/svg">
<g clip-path="url(#clip0_370_1925)">
<path d="M8.1369 33.5V7.31818H18.4664C20.4522 7.31818 22.144 7.69744 23.5417 8.45597C24.9395 9.20597 26.0048 10.25 26.7377 11.5881C27.4792 12.9176 27.85 14.4517 27.85 16.1903C27.85 17.929 27.475 19.4631 26.725 20.7926C25.975 22.1222 24.8883 23.1577 23.465 23.8991C22.0502 24.6406 20.3372 25.0114 18.3258 25.0114H11.742V20.5753H17.4309C18.4963 20.5753 19.3741 20.392 20.0645 20.0256C20.7633 19.6506 21.2832 19.1349 21.6241 18.4787C21.9735 17.8139 22.1483 17.0511 22.1483 16.1903C22.1483 15.321 21.9735 14.5625 21.6241 13.9148C21.2832 13.2585 20.7633 12.7514 20.0645 12.3935C19.3656 12.027 18.4792 11.8438 17.4054 11.8438H13.6724V33.5H8.1369ZM31.3432 33.5V13.8636H36.623V17.2898H36.8276C37.1855 16.071 37.7864 15.1506 38.6301 14.5284C39.4739 13.8977 40.4455 13.5824 41.5449 13.5824C41.8176 13.5824 42.1117 13.5994 42.427 13.6335C42.7424 13.6676 43.0194 13.7145 43.258 13.7741V18.6065C43.0023 18.5298 42.6486 18.4616 42.1969 18.402C41.7452 18.3423 41.3319 18.3125 40.9569 18.3125C40.1557 18.3125 39.4398 18.4872 38.8091 18.8366C38.187 19.1776 37.6926 19.6548 37.3262 20.2685C36.9682 20.8821 36.7892 21.5895 36.7892 22.3906V33.5H31.3432ZM54.0318 33.8835C52.046 33.8835 50.3287 33.4616 48.8798 32.6179C47.4395 31.7656 46.3272 30.581 45.5431 29.0639C44.7591 27.5384 44.367 25.7699 44.367 23.7585C44.367 21.7301 44.7591 19.9574 45.5431 18.4403C46.3272 16.9148 47.4395 15.7301 48.8798 14.8864C50.3287 14.0341 52.046 13.608 54.0318 13.608C56.0176 13.608 57.7306 14.0341 59.171 14.8864C60.6199 15.7301 61.7363 16.9148 62.5204 18.4403C63.3045 19.9574 63.6966 21.7301 63.6966 23.7585C63.6966 25.7699 63.3045 27.5384 62.5204 29.0639C61.7363 30.581 60.6199 31.7656 59.171 32.6179C57.7306 33.4616 56.0176 33.8835 54.0318 33.8835ZM54.0574 29.6648C54.9608 29.6648 55.715 29.4091 56.3201 28.8977C56.9252 28.3778 57.3812 27.6705 57.688 26.7756C58.0034 25.8807 58.161 24.8622 58.161 23.7202C58.161 22.5781 58.0034 21.5597 57.688 20.6648C57.3812 19.7699 56.9252 19.0625 56.3201 18.5426C55.715 18.0227 54.9608 17.7628 54.0574 17.7628C53.1454 17.7628 52.3784 18.0227 51.7562 18.5426C51.1426 19.0625 50.6781 19.7699 50.3627 20.6648C50.0559 21.5597 49.9025 22.5781 49.9025 23.7202C49.9025 24.8622 50.0559 25.8807 50.3627 26.7756C50.6781 27.6705 51.1426 28.3778 51.7562 28.8977C52.3784 29.4091 53.1454 29.6648 54.0574 29.6648ZM76.1099 33.8835C74.0985 33.8835 72.3684 33.4574 70.9196 32.6051C69.4792 31.7443 68.3713 30.5511 67.5957 29.0256C66.8287 27.5 66.4451 25.7443 66.4451 23.7585C66.4451 21.7472 66.8329 19.983 67.6085 18.4659C68.3926 16.9403 69.5048 15.7514 70.9451 14.8991C72.3855 14.0384 74.0985 13.608 76.0843 13.608C77.7974 13.608 79.2974 13.919 80.5843 14.5412C81.8713 15.1634 82.8897 16.0369 83.6397 17.1619C84.3897 18.2869 84.8031 19.608 84.8798 21.125H79.7406C79.5957 20.1449 79.2122 19.3565 78.59 18.7599C77.9764 18.1548 77.171 17.8523 76.1738 17.8523C75.3301 17.8523 74.5929 18.0824 73.9622 18.5426C73.34 18.9943 72.8542 19.6548 72.5048 20.5241C72.1554 21.3935 71.9806 22.446 71.9806 23.6818C71.9806 24.9347 72.1511 26 72.492 26.8778C72.8414 27.7557 73.3315 28.4247 73.9622 28.8849C74.5929 29.3452 75.3301 29.5753 76.1738 29.5753C76.796 29.5753 77.3542 29.4474 77.8485 29.1918C78.3514 28.9361 78.7647 28.5653 79.0886 28.0795C79.421 27.5852 79.6383 26.9929 79.7406 26.3026H84.8798C84.7946 27.8026 84.3855 29.1236 83.6525 30.2656C82.9281 31.3991 81.9267 32.2855 80.6483 32.9247C79.3699 33.5639 77.8571 33.8835 76.1099 33.8835ZM97.3155 33.8835C95.2956 33.8835 93.557 33.4744 92.0996 32.6562C90.6507 31.8295 89.5343 30.6619 88.7502 29.1534C87.9661 27.6364 87.574 25.8423 87.574 23.7713C87.574 21.7514 87.9661 19.9787 88.7502 18.4531C89.5343 16.9276 90.638 15.7386 92.0613 14.8864C93.4931 14.0341 95.1721 13.608 97.0982 13.608C98.3936 13.608 99.5996 13.8168 100.716 14.2344C101.841 14.6435 102.821 15.2614 103.656 16.0881C104.5 16.9148 105.156 17.9545 105.625 19.2074C106.094 20.4517 106.328 21.9091 106.328 23.5795V25.0753H89.7473V21.7003H101.202C101.202 20.9162 101.031 20.2216 100.691 19.6165C100.35 19.0114 99.8766 18.5384 99.2715 18.1974C98.6749 17.848 97.9803 17.6733 97.1877 17.6733C96.361 17.6733 95.628 17.8651 94.9888 18.2486C94.3581 18.6236 93.8638 19.1307 93.5059 19.7699C93.1479 20.4006 92.9647 21.1037 92.9561 21.8793V25.0881C92.9561 26.0597 93.1351 26.8991 93.4931 27.6065C93.8596 28.3139 94.3752 28.8594 95.04 29.2429C95.7047 29.6264 96.4931 29.8182 97.405 29.8182C98.0101 29.8182 98.5641 29.733 99.0669 29.5625C99.5698 29.392 100 29.1364 100.358 28.7955C100.716 28.4545 100.989 28.0369 101.176 27.5426L106.213 27.875C105.958 29.0852 105.433 30.142 104.641 31.0455C103.857 31.9403 102.843 32.6392 101.598 33.142C100.362 33.6364 98.9348 33.8835 97.3155 33.8835ZM126.22 19.4631L121.235 19.7699C121.149 19.3437 120.966 18.9602 120.685 18.6193C120.404 18.2699 120.033 17.9929 119.573 17.7884C119.121 17.5753 118.58 17.4688 117.949 17.4688C117.105 17.4688 116.394 17.6477 115.814 18.0057C115.235 18.3551 114.945 18.8239 114.945 19.4119C114.945 19.8807 115.132 20.277 115.507 20.6009C115.882 20.9247 116.526 21.1847 117.438 21.3807L120.992 22.0966C122.901 22.4886 124.324 23.1193 125.262 23.9886C126.199 24.858 126.668 26 126.668 27.4148C126.668 28.7017 126.289 29.831 125.53 30.8026C124.78 31.7741 123.749 32.5327 122.436 33.0781C121.132 33.6151 119.628 33.8835 117.923 33.8835C115.324 33.8835 113.253 33.3423 111.71 32.2599C110.176 31.169 109.277 29.6861 109.013 27.8111L114.369 27.5298C114.531 28.3224 114.923 28.9276 115.546 29.3452C116.168 29.7543 116.965 29.9588 117.936 29.9588C118.891 29.9588 119.658 29.7756 120.237 29.4091C120.825 29.0341 121.124 28.5526 121.132 27.9645C121.124 27.4702 120.915 27.0653 120.506 26.75C120.097 26.4261 119.466 26.179 118.614 26.0085L115.213 25.331C113.296 24.9474 111.868 24.2827 110.931 23.3366C110.002 22.3906 109.537 21.1847 109.537 19.7188C109.537 18.4574 109.878 17.3707 110.56 16.4588C111.25 15.5469 112.218 14.8438 113.462 14.3494C114.715 13.8551 116.181 13.608 117.86 13.608C120.34 13.608 122.291 14.1321 123.715 15.1804C125.146 16.2287 125.982 17.6562 126.22 19.4631ZM146.435 19.4631L141.449 19.7699C141.364 19.3437 141.181 18.9602 140.9 18.6193C140.618 18.2699 140.248 17.9929 139.787 17.7884C139.336 17.5753 138.795 17.4688 138.164 17.4688C137.32 17.4688 136.608 17.6477 136.029 18.0057C135.449 18.3551 135.16 18.8239 135.16 19.4119C135.16 19.8807 135.347 20.277 135.722 20.6009C136.097 20.9247 136.741 21.1847 137.653 21.3807L141.206 22.0966C143.116 22.4886 144.539 23.1193 145.476 23.9886C146.414 24.858 146.883 26 146.883 27.4148C146.883 28.7017 146.503 29.831 145.745 30.8026C144.995 31.7741 143.964 32.5327 142.651 33.0781C141.347 33.6151 139.843 33.8835 138.138 33.8835C135.539 33.8835 133.468 33.3423 131.925 32.2599C130.391 31.169 129.492 29.6861 129.228 27.8111L134.584 27.5298C134.746 28.3224 135.138 28.9276 135.76 29.3452C136.383 29.7543 137.18 29.9588 138.151 29.9588C139.106 29.9588 139.873 29.7756 140.452 29.4091C141.04 29.0341 141.339 28.5526 141.347 27.9645C141.339 27.4702 141.13 27.0653 140.721 26.75C140.312 26.4261 139.681 26.179 138.829 26.0085L135.428 25.331C133.51 24.9474 132.083 24.2827 131.145 23.3366C130.216 22.3906 129.752 21.1847 129.752 19.7188C129.752 18.4574 130.093 17.3707 130.775 16.4588C131.465 15.5469 132.432 14.8438 133.677 14.3494C134.93 13.8551 136.395 13.608 138.074 13.608C140.555 13.608 142.506 14.1321 143.93 15.1804C145.361 16.2287 146.197 17.6562 146.435 19.4631Z" fill="#23399D"/>
</g>
<defs>
<clipPath id="clip0_370_1925">
<rect width="154" height="41" fill="white"/>
</clipPath>
</defs>
</svg>
