<svg width="34" height="34" viewBox="0 0 34 34" fill="none" xmlns="http://www.w3.org/2000/svg">
<g id="mdi:account-circle">
<path id="Vector" d="M16.9987 27.2007C13.457 27.2007 10.3262 25.3873 8.4987 22.6673C8.5412 19.834 14.1654 18.2757 16.9987 18.2757C19.832 18.2757 25.4562 19.834 25.4987 22.6673C24.5621 24.0619 23.297 25.2048 21.8147 25.9953C20.3325 26.7859 18.6786 27.1998 16.9987 27.2007ZM16.9987 7.08398C18.1259 7.08398 19.2069 7.53175 20.0039 8.32878C20.8009 9.12581 21.2487 10.2068 21.2487 11.334C21.2487 12.4612 20.8009 13.5422 20.0039 14.3392C19.2069 15.1362 18.1259 15.584 16.9987 15.584C15.8715 15.584 14.7905 15.1362 13.9935 14.3392C13.1965 13.5422 12.7487 12.4612 12.7487 11.334C12.7487 10.2068 13.1965 9.12581 13.9935 8.32878C14.7905 7.53175 15.8715 7.08398 16.9987 7.08398ZM16.9987 2.83398C15.1383 2.83398 13.2961 3.20042 11.5773 3.91236C9.85857 4.6243 8.29685 5.66781 6.98135 6.98331C4.32459 9.64007 2.83203 13.2434 2.83203 17.0007C2.83203 20.7579 4.32459 24.3612 6.98135 27.018C8.29685 28.3335 9.85857 29.377 11.5773 30.0889C13.2961 30.8009 15.1383 31.1673 16.9987 31.1673C20.7559 31.1673 24.3593 29.6748 27.016 27.018C29.6728 24.3612 31.1654 20.7579 31.1654 17.0007C31.1654 9.16648 24.7904 2.83398 16.9987 2.83398Z" fill="#8891AA"/>
</g>
</svg>
